<?xml version="1.0" encoding="UTF-8" standalone="no"?>
<svg
   width="81"
   height="81"
   viewBox="0 0 81 81"
   fill="none"
   version="1.1"
   id="svg1107"
   sodipodi:docname="cources-icon.svg"
   inkscape:export-filename="cources-icon.svg"
   inkscape:export-xdpi="96"
   inkscape:export-ydpi="96"
   xmlns:inkscape="http://www.inkscape.org/namespaces/inkscape"
   xmlns:sodipodi="http://sodipodi.sourceforge.net/DTD/sodipodi-0.dtd"
   xmlns="http://www.w3.org/2000/svg"
   xmlns:svg="http://www.w3.org/2000/svg">
  <defs
     id="defs1111" />
  <sodipodi:namedview
     id="namedview1109"
     pagecolor="#ffffff"
     bordercolor="#000000"
     borderopacity="0.25"
     inkscape:showpageshadow="2"
     inkscape:pageopacity="0.0"
     inkscape:pagecheckerboard="0"
     inkscape:deskcolor="#d1d1d1"
     showgrid="false" />
  <g
     id="g2782">
    <path
       d="M -0.21485562,30 C -0.21485562,13.4315 13.216644,-2.0159153e-8 29.785148,-2.0159153e-8 h 11 c 22.0914,0 40,17.908600020159152 40,40.000000020159156 v 11 c 0,16.5685 -13.4315,30 -30,30 h -21 C 13.216644,81 -0.21485562,67.5685 -0.21485562,51 Z"
       fill="#ecedfe"
       id="path1099" />
    <path
       d="M 42.112461,62.485149 H 25.77816 c 0.467558,-6.801397 6.330493,-12.195774 13.468757,-12.195774 2.601846,0 5.127267,0.717951 7.302061,2.076948 l 1.76e-4,1.71e-4 c 0.420873,0.262248 0.982069,0.145779 1.254238,-0.262331 v -8.6e-5 c 0.27164,-0.407682 0.150028,-0.951572 -0.270228,-1.214501 l -1.76e-4,-8.5e-5 c -2.46991,-1.542033 -5.335099,-2.357054 -8.286071,-2.357054 -8.443864,0 -15.313666,6.65314 -15.313666,14.83114 0,0.484928 0.405871,0.87851 0.90732,0.87851 h 17.27189 c 0.500919,0 0.907318,-0.393496 0.907318,-0.87851 0,-0.484844 -0.405871,-0.878428 -0.907318,-0.878428 z"
       fill="#2e35b8"
       stroke="#2e35b8"
       stroke-width="0.351472"
       id="path1101" />
    <path
       d="m 36.328865,62.600846 h 17.092903 c -0.489273,-6.79734 -6.624496,-12.188501 -14.094277,-12.188501 -2.722683,0 -5.36539,0.717525 -7.641182,2.075711 l -1.86e-4,1.72e-4 c -0.440421,0.262089 -1.027679,0.14569 -1.312489,-0.262176 v -8.5e-5 c -0.284251,-0.407438 -0.156995,-0.951004 0.28278,-1.213777 l 1.84e-4,-8.6e-5 c 2.584616,-1.541112 5.582874,-2.355648 8.670893,-2.355648 8.836016,0 16.024868,6.649171 16.024868,14.822292 0,0.484641 -0.424719,0.877988 -0.949458,0.877988 H 36.328865 c -0.52418,0 -0.949456,-0.393261 -0.949456,-0.877988 0,-0.484553 0.424722,-0.877902 0.949456,-0.877902 z"
       fill="#2e35b8"
       stroke="#2e35b8"
       stroke-width="0.355227"
       id="path1101-0" />
    <path
       d="m 38.934689,47.561917 c 4.907185,0 8.899162,-3.881063 8.899162,-8.65213 0,-4.767477 -3.992066,-8.646062 -8.899162,-8.646062 -4.903844,0 -8.892833,3.878671 -8.892833,8.646062 0,4.770469 3.988901,8.65213 8.892833,8.65213 z m 0,-15.541173 c 3.909959,0 7.091691,3.090785 7.091691,6.889043 0,3.801677 -3.18138,6.895111 -7.091691,6.895111 -3.906268,0 -7.085363,-3.093348 -7.085363,-6.895111 0,-3.798429 3.17892,-6.889043 7.085363,-6.889043 z"
       fill="#2e35b8"
       stroke="#2e35b8"
       stroke-width="0.346689"
       id="path1103" />
    <path
       d="M 17.689602,46.429066 H 4.3428408 C 4.7248826,40.474115 9.5154883,35.751078 15.348166,35.751078 c 2.125969,0 4.189488,0.628601 5.966518,1.818468 l 1.39e-4,1.5e-4 c 0.343901,0.22961 0.80245,0.127636 1.02484,-0.229684 v -7.5e-5 c 0.221957,-0.356945 0.122589,-0.833147 -0.220805,-1.063354 l -1.39e-4,-7.5e-5 c -2.018164,-1.350124 -4.359313,-2.063714 -6.770553,-2.063714 -6.8994838,0 -12.5128008,5.825145 -12.5128008,12.985378 0,0.424578 0.3316373,0.769178 0.7413714,0.769178 H 17.689602 c 0.409301,0 0.74137,-0.344525 0.74137,-0.769178 0,-0.424504 -0.331637,-0.769106 -0.74137,-0.769106 z"
       fill="#2e35b8"
       stroke="#2e35b8"
       stroke-width="0.297282"
       id="path1101-5-0" />
    <path
       d="m 12.963825,46.530364 h 13.966618 c -0.399791,-5.951399 -5.412881,-10.67162 -11.51644,-10.67162 -2.224705,0 -4.384062,0.628228 -6.2436121,1.817385 l -1.52e-4,1.51e-4 C 8.8103708,37.905751 8.3305222,37.803838 8.0978038,37.446732 v -7.5e-5 C 7.8655423,37.089926 7.9695232,36.614008 8.3288634,36.383937 l 1.504e-4,-7.5e-5 c 2.1118902,-1.349318 4.5617682,-2.062484 7.0849892,-2.062484 7.219914,0 13.093925,5.82167 13.093925,12.977632 0,0.424326 -0.347039,0.768721 -0.775804,0.768721 H 12.963825 c -0.428308,0 -0.775801,-0.344319 -0.775801,-0.768721 0,-0.42425 0.34704,-0.768646 0.775801,-0.768646 z"
       fill="#2e35b8"
       stroke="#2e35b8"
       stroke-width="0.300458"
       id="path1101-0-5-3" />
    <path
       d="m 15.093044,33.363057 c 4.009662,0 7.271508,-3.398058 7.271508,-7.575357 0,-4.174156 -3.261918,-7.570044 -7.271508,-7.570044 -4.006932,0 -7.2663361,3.395963 -7.2663361,7.570044 0,4.176775 3.2593321,7.575357 7.2663361,7.575357 z m 0,-13.607047 c 3.194829,0 5.794623,2.706132 5.794623,6.03169 0,3.328551 -2.599507,6.037002 -5.794623,6.037002 -3.191812,0 -5.7894518,-2.708375 -5.7894518,-6.037002 0,-3.325708 2.5974968,-6.03169 5.7894518,-6.03169 z"
       fill="#2e35b8"
       stroke="#2e35b8"
       stroke-width="0.293236"
       id="path1103-1-9" />
    <path
       d="M 64.432281,44.975549 H 51.08552 c 0.382041,-5.954951 5.172647,-10.677988 11.005325,-10.677988 2.125969,0 4.189488,0.628601 5.966518,1.818468 l 1.39e-4,1.5e-4 c 0.343901,0.22961 0.80245,0.127636 1.02484,-0.229684 v -7.5e-5 c 0.221957,-0.356945 0.122589,-0.833147 -0.220805,-1.063354 l -1.39e-4,-7.5e-5 c -2.018164,-1.350124 -4.359313,-2.063714 -6.770553,-2.063714 -6.899484,0 -12.512801,5.825145 -12.512801,12.985378 0,0.424578 0.331637,0.769178 0.741371,0.769178 h 14.112866 c 0.409301,0 0.74137,-0.344525 0.74137,-0.769178 0,-0.424504 -0.331637,-0.769106 -0.74137,-0.769106 z"
       fill="#2e35b8"
       stroke="#2e35b8"
       stroke-width="0.297282"
       id="path1101-5-0-4" />
    <path
       d="m 59.706504,45.076847 h 13.966618 c -0.399791,-5.951399 -5.412881,-10.67162 -11.51644,-10.67162 -2.224705,0 -4.384062,0.628228 -6.243612,1.817385 l -1.52e-4,1.51e-4 c -0.359868,0.229471 -0.839717,0.127558 -1.072435,-0.229548 v -7.5e-5 c -0.232262,-0.356731 -0.128281,-0.832649 0.231059,-1.06272 l 1.51e-4,-7.5e-5 c 2.11189,-1.349318 4.561768,-2.062484 7.084989,-2.062484 7.219914,0 13.093925,5.82167 13.093925,12.977632 0,0.424326 -0.347039,0.768721 -0.775804,0.768721 H 59.706504 c -0.428308,0 -0.775801,-0.344319 -0.775801,-0.768721 0,-0.42425 0.34704,-0.768646 0.775801,-0.768646 z"
       fill="#2e35b8"
       stroke="#2e35b8"
       stroke-width="0.300458"
       id="path1101-0-5-3-2" />
    <path
       d="m 61.835723,31.90954 c 4.009662,0 7.271508,-3.398058 7.271508,-7.575357 0,-4.174156 -3.261918,-7.570044 -7.271508,-7.570044 -4.006932,0 -7.266336,3.395963 -7.266336,7.570044 0,4.176775 3.259332,7.575357 7.266336,7.575357 z m 0,-13.607047 c 3.194829,0 5.794623,2.706132 5.794623,6.03169 0,3.328551 -2.599507,6.037002 -5.794623,6.037002 -3.191812,0 -5.789452,-2.708375 -5.789452,-6.037002 0,-3.325708 2.597497,-6.03169 5.789452,-6.03169 z"
       fill="#2e35b8"
       stroke="#2e35b8"
       stroke-width="0.293236"
       id="path1103-1-9-8" />
  </g>
</svg>
